<?xml version="1.0" encoding="UTF-8" standalone="no"?>
<!-- Created with Inkscape (http://www.inkscape.org/) -->

<svg
   width="25.850004mm"
   height="25.272913mm"
   viewBox="0 0 25.850004 25.272913"
   version="1.1"
   id="svg1"
   xml:space="preserve"
   inkscape:export-filename="signaturelogo.png"
   inkscape:export-xdpi="130"
   inkscape:export-ydpi="130"
   inkscape:version="1.3.2 (091e20e, 2023-11-25)"
   sodipodi:docname="Solutionlogo.svg"
   xmlns:inkscape="http://www.inkscape.org/namespaces/inkscape"
   xmlns:sodipodi="http://sodipodi.sourceforge.net/DTD/sodipodi-0.dtd"
   xmlns="http://www.w3.org/2000/svg"
   xmlns:svg="http://www.w3.org/2000/svg"><sodipodi:namedview
     id="namedview1"
     pagecolor="#ffffff"
     bordercolor="#000000"
     borderopacity="0.25"
     inkscape:showpageshadow="2"
     inkscape:pageopacity="0.0"
     inkscape:pagecheckerboard="0"
     inkscape:deskcolor="#d1d1d1"
     inkscape:document-units="mm"
     inkscape:zoom="1.4142136"
     inkscape:cx="49.851027"
     inkscape:cy="37.123105"
     inkscape:window-width="1512"
     inkscape:window-height="916"
     inkscape:window-x="0"
     inkscape:window-y="38"
     inkscape:window-maximized="1"
     inkscape:current-layer="layer1"
     showgrid="false" /><defs
     id="defs1" /><g
     inkscape:label="Layer 1"
     inkscape:groupmode="layer"
     id="layer1"
     transform="translate(415.925,650.61042)"><path
       style="fill:#ffffff;stroke:none;stroke-width:0.166779"
       d="m -413.54326,-668.92889 c -0.65879,0.0867 -1.19532,0.38648 -1.78325,0.68045 -0.80308,0.40154 -1.60038,0.81311 -2.40352,1.21468 -0.56688,0.28344 -1.12362,0.59199 -1.25446,1.27275 -0.10582,0.55056 0.0561,1.11501 0.47916,1.49448 0.43275,0.38812 1.08545,0.60512 1.60232,0.86372 0.59575,0.29807 1.18709,0.60647 1.78325,0.90455 0.72332,0.36166 1.36682,0.67254 2.19676,0.55482 0.54658,-0.0775 1.03903,-0.38946 1.52481,-0.63235 0.88062,-0.44031 1.75567,-0.8906 2.63611,-1.33082 0.5084,-0.2542 0.95909,-0.58685 1.07356,-1.18245 0.10083,-0.52462 -0.0406,-1.06722 -0.42783,-1.44626 -0.38184,-0.37381 -0.97396,-0.57211 -1.4469,-0.80857 -0.71647,-0.35824 -1.42828,-0.72707 -2.14507,-1.08546 -0.57616,-0.28809 -1.16771,-0.5874 -1.83494,-0.49954 m 0.0258,1.0302 c 0.54681,-0.0672 1.0039,0.21681 1.47312,0.45142 0.7859,0.39295 1.56602,0.79593 2.35183,1.18883 0.37948,0.18975 1.06836,0.37317 1.00312,0.91094 -0.0513,0.42242 -0.67715,0.59287 -1.00312,0.75586 -0.73398,0.36699 -1.46266,0.74425 -2.19676,1.1113 -0.39028,0.19514 -0.80093,0.47174 -1.24053,0.52887 -0.56005,0.0728 -1.01818,-0.21094 -1.49896,-0.45134 -0.78579,-0.39289 -1.56611,-0.79597 -2.35183,-1.18883 -0.37973,-0.18986 -1.07005,-0.37374 -1.00314,-0.91093 0.0527,-0.42279 0.67623,-0.59241 1.00314,-0.75587 0.73419,-0.36709 1.46261,-0.74422 2.19676,-1.1113 0.40106,-0.20053 0.81386,-0.47334 1.26637,-0.52895 m -5.09132,4.83916 c -0.30178,0.0696 -0.41331,0.35064 -0.41331,0.63243 0,0.47981 0.23394,0.95757 0.62007,1.24247 0.57201,0.42206 1.28789,0.702 1.91247,1.03979 1.08983,0.58942 2.28997,1.50845 3.59235,1.29876 0.46308,-0.0746 0.85667,-0.31324 1.26636,-0.52472 0.63315,-0.32683 1.25992,-0.66769 1.88664,-1.00663 0.5101,-0.27589 1.14249,-0.50192 1.57648,-0.89117 0.33166,-0.29748 0.53494,-0.76239 0.51588,-1.21019 -0.0125,-0.2923 -0.17029,-0.5696 -0.49002,-0.59191 -0.70328,-0.0491 -0.38513,0.79971 -0.80127,1.08024 -0.91218,0.6149 -1.98381,1.04216 -2.94614,1.57562 -0.50446,0.27963 -1.04918,0.65212 -1.65404,0.5569 -0.56558,-0.089 -1.1058,-0.48355 -1.60234,-0.75209 -0.845,-0.457 -1.74364,-0.85535 -2.55856,-1.36397 -0.42773,-0.26695 -0.15464,-1.2586 -0.90457,-1.08553 m 0,3.10131 c -0.30481,0.0703 -0.41331,0.34895 -0.41331,0.63242 0,0.47838 0.23497,0.95834 0.62007,1.24248 0.57201,0.42206 1.2879,0.702 1.91247,1.03979 1.08683,0.58779 2.26994,1.49104 3.56651,1.29903 0.47522,-0.0704 0.87255,-0.30837 1.2922,-0.52499 0.63314,-0.32683 1.25993,-0.66769 1.88664,-1.00664 0.5101,-0.27588 1.14249,-0.5019 1.57648,-0.89116 0.33013,-0.29611 0.53487,-0.76418 0.51588,-1.21019 -0.0125,-0.2923 -0.17029,-0.5696 -0.49002,-0.59191 -0.70328,-0.0491 -0.38513,0.79971 -0.80127,1.08023 -0.91218,0.61491 -1.98381,1.04217 -2.94614,1.57563 -0.51651,0.28631 -1.06171,0.65569 -1.67988,0.55265 -0.55425,-0.0924 -1.08874,-0.48405 -1.5765,-0.74784 -0.84501,-0.45701 -1.74364,-0.85535 -2.55856,-1.36396 -0.42773,-0.26696 -0.15464,-1.25861 -0.90457,-1.08554 z"
       id="path4" /><path
       style="fill:#ffffff;stroke:none;stroke-width:0.0965129"
       d="m -398.40756,-656.59971 -0.2809,-0.74053 c -0.87528,0 -2.1841,0.25643 -2.85771,-0.43512 -0.438,-0.44965 -0.41085,-0.97476 -0.41085,-1.55666 v -2.40036 -3.08981 c 0,-0.49168 -0.092,-1.07899 0.13457,-1.53214 0.40368,-0.80736 1.17619,-0.81714 1.95936,-0.81714 h 1.53213 c 0.3841,0 0.90565,-0.0934 1.27529,0.008 0.1054,0.029 0.10299,0.13069 0.10362,0.2217 0.002,0.2298 3e-5,0.45966 3e-5,0.68947 0,0.63721 0.28499,1.19008 0.84267,1.52055 0.42936,0.25443 0.88197,0.20403 1.35339,0.25965 0.12654,0.0149 0.34259,-0.0392 0.45152,0.0336 0.13794,0.092 0.0592,0.58807 0.0592,0.73982 v 2.27267 h 0.74054 v -2.2982 c 0,-0.37388 0.0643,-0.80536 -0.11171,-1.14911 -0.14677,-0.28674 -0.45469,-0.51533 -0.6799,-0.74054 -0.51045,-0.51044 -1.04098,-1.00293 -1.55768,-1.50698 -0.27123,-0.26458 -0.54179,-0.6531 -0.91927,-0.76459 -0.30697,-0.0906 -0.65422,-0.0521 -0.97036,-0.0521 h -1.68535 c -0.9539,0 -1.99452,-0.0877 -2.70243,0.68956 -0.68032,0.74691 -0.59168,1.66719 -0.59168,2.60453 v 5.08161 c 0,0.85624 -0.0137,1.66964 0.6394,2.32273 0.92118,0.92119 2.49285,0.6394 3.67613,0.6394 m 1.22572,-4.27915 c -1.2752,0.16948 -0.91929,1.78109 -0.91929,2.72148 0,0.4901 -0.0797,1.05307 0.38306,1.37328 0.49709,0.34398 1.36483,0.18439 1.94069,0.18439 h 3.42177 c 0.57412,0 1.22452,0.0841 1.7875,-0.0387 0.31085,-0.0678 0.57625,-0.3224 0.6697,-0.62519 0.0864,-0.27989 0.0453,-0.60428 0.0453,-0.89374 v -1.37893 c 0,-0.47199 -0.002,-0.93706 -0.45963,-1.21348 -0.50015,-0.30188 -1.37744,-0.13991 -1.94072,-0.13991 h -3.26857 c -0.54132,0 -1.1233,-0.0605 -1.65981,0.0109 m 2.96214,1.01791 c 0.98274,-0.11121 1.67378,1.01752 1.06481,1.83026 -0.23091,0.30816 -0.60501,0.37133 -0.96267,0.40523 -0.16175,0.0154 -0.57486,0.0244 -0.69958,-0.0942 -0.0897,-0.0853 -0.0409,-0.34921 -0.0409,-0.46329 v -1.17465 c 0,-0.11178 -0.0416,-0.33146 0.0409,-0.41969 0.11437,-0.12232 0.44284,-0.0662 0.59744,-0.0837 m 2.17053,0.4268 v 0.45963 c 0.19224,0 0.60387,-0.0774 0.76229,0.0409 0.12324,0.0921 0.0896,0.28857 -0.0484,0.34482 -0.19594,0.0798 -0.50433,0.0228 -0.71388,0.0228 0,0.2205 0.0564,0.53314 -0.0292,0.73944 -0.0633,0.15232 -0.27067,0.19938 -0.39409,0.0866 -0.11576,-0.10582 -0.0873,-0.30245 -0.0873,-0.44298 v -1.14911 c 0,-0.1209 -0.0475,-0.37589 0.0445,-0.46976 0.0991,-0.10125 0.43548,-0.0409 0.56837,-0.0409 0.19259,0 0.70035,-0.0902 0.81257,0.10555 0.0663,0.11572 0.005,0.26225 -0.12323,0.2949 -0.23632,0.0603 -0.54757,0.008 -0.79148,0.008 m -4.34107,1.07249 c 0,0.19631 0.0233,1.01543 -0.40273,0.67151 -0.18732,-0.15122 -0.0824,-0.75482 -0.0824,-0.97793 v -0.76607 c 0,-0.0851 -0.0247,-0.22135 0.0262,-0.29537 0.074,-0.10738 0.43854,-0.0843 0.56109,-0.0873 0.29458,-0.007 0.69119,0.0121 0.91384,0.23488 0.40196,0.40212 0.0693,1.04119 -0.40313,1.16523 -0.20127,0.0528 -0.40644,0.055 -0.61286,0.055 m 0,-1.09803 v 0.63838 c 0.16763,0 0.38375,0.0332 0.53512,-0.0546 0.16255,-0.0943 0.17738,-0.36788 0.0233,-0.47792 -0.14868,-0.10616 -0.38328,-0.10571 -0.55837,-0.10582 m 2.01732,1.40446 c 0.23349,0 0.49168,7e-4 0.68907,-0.14397 0.28585,-0.20994 0.32549,-0.7876 0.089,-1.05077 -0.10467,-0.11645 -0.62236,-0.33217 -0.75177,-0.16878 -0.0626,0.079 -0.0262,0.27235 -0.0262,0.36763 z"
       id="path5" /><path
       style="fill:#ffffff;stroke:none;stroke-width:0.110608"
       d="m -383.85675,-659.18602 c 1.12032,0.57241 1.78295,-0.74898 2.34499,-1.49251 0.1423,-0.18825 0.51062,-0.79463 0.78636,-0.74267 0.4809,0.0906 0.31874,0.55558 0.23864,0.85973 -0.16755,0.63615 -0.20855,1.75764 0.69784,1.80829 0.93366,0.0522 0.89309,-1.14228 0.72302,-1.74976 -0.0489,-0.17451 -0.18301,-0.40535 -0.1752,-0.5853 0.0146,-0.33695 0.50321,-0.78524 0.7691,-0.94009 0.41915,-0.2441 0.67251,0.0731 0.9403,0.38405 0.30995,0.35998 0.61143,0.73492 1.02045,0.98822 0.67128,0.41571 1.47119,0.25535 2.10708,-0.14143 0.24591,-0.15344 0.66278,-0.39309 0.72167,-0.70046 0.0676,-0.35302 -0.23017,-0.62322 -0.57535,-0.54449 -0.5361,0.12227 -0.87288,0.86361 -1.52177,0.68199 -1.03187,-0.28882 -1.22863,-1.74798 -2.45826,-1.71738 -0.1711,0.004 -0.33894,0.0566 -0.4975,0.11862 -0.20129,0.0787 -0.39538,0.21088 -0.55604,0.35427 -0.21071,0.18808 -0.4065,0.39863 -0.55603,0.63875 h -0.0293 c -0.0919,-0.12455 -0.21459,-0.21055 -0.35118,-0.28319 -1.09198,-0.58075 -1.91105,0.80653 -2.43748,1.54159 -0.16738,0.2337 -0.4447,0.78497 -0.78167,0.67309 0.65792,-1.3901 1.16373,-2.95387 1.38338,-4.47754 0.119,-0.82546 0.187,-1.67407 -0.0417,-2.48752 -0.0853,-0.30344 -0.24435,-0.57596 -0.44207,-0.81942 -1.11415,-1.37192 -3.00458,-0.99991 -3.74154,0.55603 -0.81937,1.72998 -0.36792,3.84965 0.50979,5.47255 0.24474,0.45253 0.50736,0.89503 0.80219,1.31693 0.10846,0.15519 0.36946,0.39433 0.38998,0.58529 0.0268,0.24894 -0.27615,0.63647 -0.38819,0.84869 -0.4254,0.80572 -0.90037,1.58674 -1.45345,2.31193 -0.20678,0.27112 -0.63747,0.60493 -0.64561,0.96575 -0.008,0.35247 0.35349,0.57419 0.67149,0.42221 0.18322,-0.0876 0.31986,-0.29741 0.44471,-0.45148 0.5984,-0.73848 1.12608,-1.53754 1.58351,-2.37046 0.17876,-0.3255 0.41458,-0.66587 0.51783,-1.02428 m -0.23412,-1.69736 c -0.34891,-0.28837 -0.58578,-0.83548 -0.79919,-1.22913 -0.63352,-1.16861 -1.06449,-2.55597 -0.83233,-3.89224 0.10859,-0.62503 0.40363,-1.32581 0.98769,-1.64173 0.65711,-0.35543 1.41958,0.13668 1.68378,0.76378 0.4123,0.97865 0.095,2.32269 -0.15107,3.30694 -0.23145,0.92577 -0.58262,1.79267 -0.88888,2.69238 m 1.72663,4.05488 c -0.44583,0.11701 -0.45463,0.73956 -0.0293,0.88771 0.43555,0.1517 1.09106,0.0324 1.55104,0.0324 h 3.45327 1.11207 c 0.17518,0 0.3736,0.0251 0.52632,-0.0791 0.35216,-0.2402 0.21906,-0.79837 -0.20441,-0.85195 -0.45411,-0.0575 -0.94687,-0.005 -1.40472,-0.005 h -2.78017 -1.49251 c -0.22985,0 -0.50832,-0.0423 -0.73162,0.0163 z"
       id="path6" /><path
       style="fill:#ffffff;stroke:none;stroke-width:0.0899229"
       d="m -398.6777,-633.73919 v -0.0238 l -1.28477,-1.28478 c -0.1164,-0.11639 -0.33117,-0.42999 -0.49964,-0.45427 -0.11158,-0.0161 -0.26797,0.1458 -0.35688,0.20238 -0.26602,0.16929 -0.5553,0.3008 -0.85651,0.39404 -1.11275,0.34444 -2.39739,0.0876 -3.28332,-0.67237 -1.86086,-1.59629 -1.64976,-4.62228 0.54722,-5.82955 0.39451,-0.21679 0.87521,-0.41155 1.33236,-0.42099 v -2.54576 c -0.72185,8e-5 -1.46154,0.22795 -2.1175,0.51333 -0.67542,0.29384 -1.28854,0.72762 -1.80821,1.24729 -2.18071,2.18072 -2.37013,5.77032 -0.41364,8.16071 0.43757,0.53461 0.96526,0.99291 1.55567,1.35132 0.58613,0.35582 1.23041,0.61646 1.90337,0.75189 0.90764,0.18268 1.83548,0.17591 2.73609,-0.0482 0.92248,-0.22956 1.85416,-0.67941 2.54576,-1.34125 m -3.64019,-10.63509 v 2.54576 c 1.53319,0.0316 3.1089,1.60683 3.14056,3.14057 h 2.54576 c -0.002,-2.90402 -2.78286,-5.68442 -5.68632,-5.68633 m 3.14056,6.44768 c -0.009,0.43683 -0.18193,0.90462 -0.38802,1.28477 -0.0806,0.14859 -0.31711,0.38206 -0.32857,0.54722 -0.011,0.15797 0.32757,0.39612 0.43108,0.49963 l 1.30857,1.30857 h 0.0238 c 0.88082,-0.92044 1.49876,-2.35767 1.4989,-3.64019 z"
       id="path7" /></g></svg>
